<!-- icon666.com - MILLIONS vector ICONS FREE --><svg version="1.1" id="Capa_1" xmlns="http://www.w3.org/2000/svg" xmlns:xlink="http://www.w3.org/1999/xlink" x="0px" y="0px" viewBox="0 0 512 512" style="enable-background:new 0 0 512 512;" xml:space="preserve"><linearGradient id="SVGID_1_" gradientUnits="userSpaceOnUse" x1="0" y1="258" x2="512" y2="258" gradientTransform="matrix(1 0 0 -1 0 514)"><stop offset="0" style="stop-color:#00F2FE"></stop><stop offset="0.021" style="stop-color:#03EFFE"></stop><stop offset="0.293" style="stop-color:#24D2FE"></stop><stop offset="0.554" style="stop-color:#3CBDFE"></stop><stop offset="0.796" style="stop-color:#4AB0FE"></stop><stop offset="1" style="stop-color:#4FACFE"></stop></linearGradient><path style="fill:url(#SVGID_1_);" d="M437.02,74.98C388.667,26.629,324.38,0,256,0S123.333,26.629,74.98,74.98 C26.629,123.333,0,187.62,0,256s26.629,132.667,74.98,181.02C123.333,485.371,187.62,512,256,512 c46.812,0,92.616-12.757,132.462-36.893c9.447-5.723,12.467-18.021,6.744-27.468c-5.724-9.449-18.021-12.467-27.469-6.745 c-27.898,16.899-59.275,27.175-91.737,30.176V276h71.863c2.117,27.55,8.618,54.315,19.418,79.803 c3.23,7.624,10.634,12.202,18.424,12.202c2.602,0,5.248-0.511,7.794-1.59c10.171-4.31,14.922-16.048,10.612-26.218 c-8.696-20.524-14.077-42.044-16.099-64.197h83.051c-3.33,35.495-15.498,69.683-35.689,99.885c-6.14,9.183-3.672,21.603,5.51,27.742 c9.184,6.141,21.604,3.671,27.742-5.511C497.002,355.674,512,306.531,512,256C512,187.62,485.371,123.333,437.02,74.98z M429.493,127.477c22.952,30.901,37.845,68.118,41.573,108.523h-83.042C391.67,196.714,406.01,159.176,429.493,127.477z M236,40.934 V236h-71.866c-2.087-27.154-8.433-53.554-18.958-78.718c-4.263-10.189-15.975-14.998-26.169-10.733 c-10.19,4.262-14.995,15.979-10.733,26.168c8.47,20.249,13.723,41.462,15.715,63.282H40.935 C50.453,132.827,132.828,50.453,236,40.934z M82.513,384.531C59.559,353.629,44.662,316.409,40.935,276h83.037 C120.318,315.252,105.982,352.843,82.513,384.531z M236,471.066c-48.489-4.473-92.383-25.036-126.283-56.293 c31.512-39.834,50.426-88.223,54.393-138.772H236V471.066z M276,40.934c48.486,4.473,92.378,25.033,126.277,56.287 c-31.534,39.856-50.429,88.18-54.388,138.778H276V40.934z"></path></svg>