<!-- icon666.com - MILLIONS vector ICONS FREE --><svg version="1.1" id="Capa_1" xmlns="http://www.w3.org/2000/svg" xmlns:xlink="http://www.w3.org/1999/xlink" x="0px" y="0px" viewBox="0 0 512 512" style="enable-background:new 0 0 512 512;" xml:space="preserve"><path style="fill:#FF3980;" d="M385.3,41.1l-42.001,121.8C381.099,190.199,406,234.6,406,285v60c0,14.099-2.701,27.599-6.301,40.8 H413.5C457,342.9,481,285.899,481,225C481,149.099,443.2,81.599,385.3,41.1z"></path><path style="fill:#FF7CB9;" d="M391,75c0,31.5-14.099,61.199-38.401,81.299c-2.999,2.401-5.999,4.801-9.3,6.601 c-9.899-6.899-20.4-12.9-31.8-17.401C294.401,138.9,275.501,135,256,135c-82.8,0-150,67.2-150,150v60 c0,14.099,2.701,27.599,6.301,40.8H98.5C55,342.9,31,285.899,31,225C31,100.8,131.8,0,256,0c24,0,47.1,3.9,68.699,10.8 C346.601,17.699,367,27.9,385.3,41.1C388.9,51.899,391,63.3,391,75z"></path><path style="fill:#FF5E95;" d="M391,75c0,31.5-14.099,61.199-38.401,81.299c-2.999,2.401-5.999,4.801-9.3,6.601 c-9.899-6.899-20.4-12.9-31.8-17.401C294.401,138.9,275.501,135,256,135V0c24,0,47.1,3.9,68.699,10.8 C346.601,17.699,367,27.9,385.3,41.1C388.9,51.899,391,63.3,391,75z"></path><path style="fill:#FED2A4;" d="M256,120c-90.901,0-165,74.099-165,165v60c0,90.899,74.099,167,165,167s165-76.101,165-167v-60 C421,194.099,346.901,120,256,120z"></path><path style="fill:#FFBD86;" d="M421,285v60c0,90.899-74.099,167-165,167V120C346.901,120,421,194.099,421,285z"></path><path style="fill:#FF7CB9;" d="M320.799,382.5C307.599,405.599,282.7,420,256,420s-51.599-14.401-64.799-37.5l25.8-15 c8.099,13.799,23.099,22.5,39,22.5s30.901-8.701,39-22.5L320.799,382.5z"></path><path style="fill:#68544F;" d="M196,312.393c-14.707,0-29.414-5.596-40.605-16.787l21.211-21.211 c10.693,10.693,28.096,10.693,38.789,0l21.211,21.211C225.414,306.797,210.707,312.393,196,312.393z"></path><path style="fill:#53433F;" d="M316,312.393c-14.707,0-29.414-5.596-40.605-16.787l21.211-21.211 c10.693,10.693,28.096,10.693,38.789,0l21.211,21.211C345.414,306.797,330.707,312.393,316,312.393z"></path><path style="fill:#FF5E95;" d="M295,367.5l25.8,15C307.599,405.599,282.7,420,256,420v-30C271.901,390,286.901,381.299,295,367.5z"></path></svg>