<!-- icon666.com - MILLIONS vector ICONS FREE --><svg version="1.1" id="Capa_1" xmlns="http://www.w3.org/2000/svg" xmlns:xlink="http://www.w3.org/1999/xlink" x="0px" y="0px" viewBox="0 0 512 512" style="enable-background:new 0 0 512 512;" xml:space="preserve"><path style="fill:#ED5151;" d="M422.434,46.9c-12.124-4.357-25.339-6.734-39.434-6.734c-37.607,0-65.96,14.4-86.25,31.197 c-28.403,23.512-41,51.723-41,51.723S230.56,66.652,171.066,46.9C122.722,64.272,91.75,113.191,91.75,169.076 c0,87.029,85.23,163.811,205,267.328c119.77-103.517,205-180.299,205-267.328C501.75,113.191,470.778,64.272,422.434,46.9z"></path><polygon style="fill:#FFFFFF;" points="254.25,260.336 254.25,194.336 285.75,194.336 285.75,165.836 225.75,165.836 225.75,231.836 159.75,231.836 159.75,291.836 188.25,291.836 188.25,260.336 "></polygon><polygon style="fill:#E3F2FF;" points="314.25,231.836 285.75,231.836 285.75,194.336 254.25,194.336 254.25,260.336 188.25,260.336 188.25,291.836 225.75,291.836 225.75,320.336 225.75,357.836 254.25,357.836 285.75,357.836 285.75,291.836 351.75,291.836 351.75,260.336 351.75,231.836 "></polygon><path d="M424.5,101.836c5.52,0,10-4.48,10-10c0-5.52-4.48-10-10-10s-10,4.48-10,10C414.5,97.355,418.98,101.836,424.5,101.836z"></path><path d="M383.25,30.166c-39.629,0-75.791,15.361-104.574,44.423c-10.009,10.106-17.49,20.202-22.676,28.213 c-5.186-8.011-12.667-18.106-22.676-28.213C204.541,45.527,168.38,30.166,128.75,30.166C52.894,30.166,0,93.627,0,169.076 c0,101.918,108.004,187.733,249.451,310.316c1.879,1.629,4.214,2.443,6.549,2.443s4.67-0.814,6.549-2.443 C404.333,356.517,512,270.852,512,169.076c0-36.995-12.622-71.555-35.542-97.315C452.593,44.938,419.491,30.166,383.25,30.166z M256,458.608C122.431,343.024,20,260.008,20,169.076c0-67.79,46.752-118.91,108.75-118.91c34.424,0,64.661,12.786,89.871,38.001 c19.206,19.21,28.167,38.815,28.255,39.011l0,0c1.609,3.587,5.176,5.891,9.109,5.899c0.006,0,0.013,0,0.019,0 c3.932,0,7.504-2.313,9.121-5.899c0.088-0.196,9.049-19.8,28.255-39.011c25.209-25.216,55.446-38.001,89.871-38.001 c61.998,0,108.75,51.12,108.75,118.91C492,262.061,382.81,348.873,256,458.608z"></path><path d="M445.976,113.25c-4.891,2.565-6.777,8.609-4.212,13.5C448.365,139.337,452,154.368,452,169.076 c0,28.896-13.753,59.565-43.282,96.517c-3.448,4.314-2.745,10.607,1.569,14.055c4.342,3.47,10.629,2.718,14.055-1.569 C456.856,237.391,472,202.755,472,169.076c0-18.143-4.331-35.991-12.524-51.614C456.911,112.57,450.866,110.686,445.976,113.25z"></path><path d="M352,221.836h-56v-56c0-5.523-4.477-10-10-10h-60c-5.523,0-10,4.477-10,10v56h-56c-5.523,0-10,4.477-10,10v60 c0,5.523,4.477,10,10,10h56v56c0,5.523,4.477,10,10,10h60c5.523,0,10-4.477,10-10v-56h56c5.523,0,10-4.477,10-10v-60 C362,226.313,357.523,221.836,352,221.836z M342,281.836h-56c-5.523,0-10,4.477-10,10v56h-40v-56c0-5.523-4.477-10-10-10h-56v-40h56 c5.523,0,10-4.477,10-10v-56h40v56c0,5.523,4.477,10,10,10h56V281.836z"></path></svg>