<!-- icon666.com - MILLIONS vector ICONS FREE --><svg id="Layer_1" enable-background="new 0 0 510 510" viewBox="0 0 510 510" xmlns="http://www.w3.org/2000/svg"><g id="XMLID_1600_"><path id="XMLID_1576_" d="m255 90 15-45-15-45c-14.518 0-105.387 0-120 0v75.097z" fill="#d58678"></path><path id="XMLID_1601_" d="m375 75c0-32.174 0-39.844 0-75-14.518 0-105.387 0-120 0v90z" fill="#b95d4c"></path><path id="XMLID_1539_" d="m255 188 15-56.5-15-56.5c-14.09 0-102.317 0-116.5 0-35.014 0-63.5 28.484-63.5 63.5v33.5l74.667 18.666c16.572-.419 88.829-2.248 105.333-2.666z" fill="#edf5ff"></path><path id="XMLID_1580_" d="m435 172c0-11.717 0-21.783 0-33.5 0-35.013-28.484-63.5-63.5-63.5-14.09 0-102.317 0-116.5 0v113c3.79-.001 108.333 4.334 108.333 4.334z" fill="#d5e8fe"></path><path id="XMLID_1603_" d="m246.048 186.684c-6.513-2.308-12.208-8.549-23.681-12.17-10.65-3.361-24.084-3.366-34.748 0-11.445 3.612-17.174 9.865-23.68 12.17-2.407.853-5.15 1.316-8.943 1.316-7.773 0-10.96-1.824-16.912-5.634-4.021-2.575-8.919-5.709-15.711-7.852-4.749-1.499-10.424-2.514-17.373-2.514-10.492 0-19.508 0-30 0v274.5c0 35.013 28.484 63.5 63.5 63.5h116.5l15-161-15-161s-.002 0-.004 0c-1.65-.117-4.847.137-8.948-1.316z" fill="#9cf"></path><path id="XMLID_1602_" d="m435 446.5c0-83.332 0-190.406 0-274.5-10.492 0-19.508 0-30 0-23.563 0-32.124 11.52-41.06 14.684-5.004 1.771-12.877 1.775-17.892 0-8.918-3.161-17.491-14.684-41.058-14.684-23.537 0-32.096 11.508-41.051 14.682-2.406.854-5.15 1.317-8.94 1.318v322h116.5c35.014 0 63.501-28.485 63.501-63.5z" fill="#8095ff"></path><path id="XMLID_1599_" d="m180 381.5v38.5c38.888 0 44.8.511 57.006-1.532 6.186-1.034 12.197-2.579 17.994-4.587l15-68.881-15-68.881c-43.721 15.141-75 56.655-75 105.381z" fill="#c6ea4b"></path><path id="XMLID_1598_" d="m330 308.5c0-13.465 0-25.035 0-38.5h-19.25c-16.917.279-33.103-1.724-55.75 6.119v137.762c43.721-15.141 75-56.655 75-105.381z" fill="#00dc7b"></path><path id="XMLID_1597_" d="m180 398.787v21.213h21.213l53.787-53.787 15-21.213-15-21.213c-9.07 9.07-65.869 65.869-75 75z" fill="#00dc7b"></path><path id="XMLID_1581_" d="m259.394 319.394c-.101.101-4.546 4.546-4.394 4.394v42.426c8.955-8.955 16.65-16.65 25.606-25.606-7.418-7.42-13.793-13.795-21.212-21.214z" fill="#00a763"></path></g></svg>